<svg xmlns="http://www.w3.org/2000/svg" xmlns:xlink="http://www.w3.org/1999/xlink" style="vertical-align:-.255ex" width="3.755ex" height="2.509ex" viewBox="0 -970.7 1616.9 1080.4"><defs><path id="a" stroke-width="1" d="M234 637h-8q-25 0-30 1t-5 11q0 27 11 33 2 1 97 1h88q11 0 14-6 211-496 215-509l54 213q53 211 53 225 0 27-64 31-24 0-24 11 0 2 2 12 4 16 6 19t10 4q3 0 31-1t83-2q50 0 76 1t30 1q15 0 15-10 0-22-8-30-2-5-22-5-71-4-89-40L620 7q-2-7-21-7-14 0-17 2-3 3-129 303L326 604l-65-260Q196 88 196 79q5-33 72-33h10q6-5 6-8t-2-19q-4-13-10-19h-13q-31 2-108 2H63Q49 2 46 1q-15 0-15 9 0 4 3 16t5 14q2 6 23 6 68 3 88 39 4 6 71 277l68 272q-2 1-55 3z"/><path id="b" stroke-width="1" d="M42 0h-2Q26 0 26 11q0 4 3 16 4 14 7 16t19 3q86 3 135 52 10 10 116 126t105 118Q302 620 297 625q-9 11-63 12h-28q-6 6-6 8t2 19q4 13 10 19h14q34-2 121-2h61q28 0 45 1t20 0q17 0 17-11 0-1-2-13-4-15-7-18t-16-3q-31-3-54-17l77-194 53 59q105 113 105 125 0 18-24 25-5 0-13 2-15 0-15 11 0 2 2 16 4 13 10 19h37q24 0 54-2t41-1q90 0 99 3h8q7-7 7-11-2-25-12-35h-16q-34-1-61-9t-41-17-24-18l-11-9q0 1-95-104l-87-96q0-1 31-80t65-162 37-86q10-9 61-10 35 0 35-9 0-2-2-14-4-16-7-19t-14-3h-33q-30 0-89 1h-93q-32 0-35-1-17 0-17 9 0 1 2 15 2 10 4 14t5 5 9 2 16 1 26 7q17 8 17 10-1 0-47 117l-47 118Q241 95 236 84q-4-8-4-12 0-19 29-25h6q5 0 6-1h4q1 0 3-1t3-3 1-7q0-9-2-16-3-13-6-15t-15-3h-18q-15 0-42 1t-59 0Q64 2 42 0z"/></defs><g fill="currentColor" stroke="currentColor" stroke-width="0" transform="scale(1 -1)"><use xlink:href="#a"/><use x="1292" y="583" transform="scale(.707)" xlink:href="#b"/></g></svg>